<svg xmlns="http://www.w3.org/2000/svg" xmlns:xlink="http://www.w3.org/1999/xlink" width="500" zoomAndPan="magnify" viewBox="0 0 375 374.999991" height="500" preserveAspectRatio="xMidYMid meet" version="1.0"><defs><g/><clipPath id="3f91eeb0cb"><path d="M 100.570312 126.484375 L 274.570312 126.484375 L 274.570312 203.734375 L 100.570312 203.734375 Z M 100.570312 126.484375 " clip-rule="nonzero"/></clipPath></defs><rect x="-37.5" width="450" fill="#ffffff" y="-37.499999" height="449.999989" fill-opacity="1"/><rect x="-37.5" width="450" fill="#000000" y="-37.499999" height="449.999989" fill-opacity="1"/><g clip-path="url(#3f91eeb0cb)"><path fill="#cfaa5c" d="M 251.265625 157.15625 L 219.355469 157.15625 C 215.210938 157.15625 211.882812 153.828125 211.882812 149.683594 C 211.882812 145.539062 215.210938 142.210938 219.355469 142.210938 L 264.617188 142.210938 L 274.390625 126.523438 L 219.355469 126.523438 C 206.535156 126.523438 196.191406 136.898438 196.191406 149.683594 C 196.191406 162.46875 206.570312 172.847656 219.355469 172.847656 L 251.265625 172.847656 C 255.410156 172.847656 258.738281 176.175781 258.738281 180.320312 C 258.738281 184.355469 255.410156 187.792969 251.265625 187.792969 L 127.484375 187.792969 L 127.484375 187.863281 L 124.085938 187.863281 C 119.835938 187.863281 116.257812 184.390625 116.257812 180.035156 L 116.257812 150.109375 C 116.257812 145.859375 119.835938 142.28125 124.085938 142.28125 L 163.253906 142.28125 L 163.253906 165.089844 L 163.363281 165.089844 L 178.910156 139.980469 L 178.910156 126.734375 L 124.085938 126.734375 C 111.050781 126.734375 100.570312 137.21875 100.570312 150.109375 L 100.570312 180.070312 C 100.570312 193.105469 111.050781 203.589844 124.085938 203.589844 L 155.429688 203.589844 C 156.492188 203.589844 157.519531 203.515625 158.507812 203.375 L 250.910156 203.375 C 263.945312 203.375 274.429688 193.351562 274.429688 180.320312 C 274.390625 167.535156 264.050781 157.15625 251.265625 157.15625 Z M 251.265625 157.15625 " fill-opacity="1" fill-rule="nonzero"/></g><g fill="#ffffff" fill-opacity="1"><g transform="translate(118.647909, 235.55679)"><g><path d="M 5.265625 0.296875 C 4.398438 0.296875 3.613281 0.101562 2.90625 -0.28125 C 2.195312 -0.664062 1.632812 -1.222656 1.21875 -1.953125 C 0.800781 -2.679688 0.59375 -3.546875 0.59375 -4.546875 C 0.59375 -5.492188 0.800781 -6.367188 1.21875 -7.171875 C 1.632812 -7.972656 2.21875 -8.609375 2.96875 -9.078125 C 3.726562 -9.554688 4.582031 -9.796875 5.53125 -9.796875 C 6.300781 -9.796875 6.960938 -9.675781 7.515625 -9.4375 C 8.066406 -9.195312 8.476562 -8.878906 8.75 -8.484375 C 9.03125 -8.085938 9.171875 -7.660156 9.171875 -7.203125 C 9.171875 -6.804688 9.050781 -6.46875 8.8125 -6.1875 C 8.582031 -5.914062 8.265625 -5.78125 7.859375 -5.78125 C 7.441406 -5.78125 7.128906 -5.90625 6.921875 -6.15625 C 6.710938 -6.40625 6.609375 -6.691406 6.609375 -7.015625 C 6.609375 -7.304688 6.6875 -7.582031 6.84375 -7.84375 C 6.726562 -8.070312 6.539062 -8.234375 6.28125 -8.328125 C 6.03125 -8.421875 5.78125 -8.46875 5.53125 -8.46875 C 4.882812 -8.46875 4.359375 -8.171875 3.953125 -7.578125 C 3.554688 -6.992188 3.359375 -6.164062 3.359375 -5.09375 C 3.359375 -4.019531 3.566406 -3.132812 3.984375 -2.4375 C 4.398438 -1.738281 5.0625 -1.390625 5.96875 -1.390625 C 6.46875 -1.390625 6.960938 -1.519531 7.453125 -1.78125 C 7.953125 -2.050781 8.375 -2.40625 8.71875 -2.84375 L 9.59375 -2 C 8.957031 -1.125 8.28125 -0.519531 7.5625 -0.1875 C 6.84375 0.132812 6.078125 0.296875 5.265625 0.296875 Z M 5.265625 0.296875 "/></g></g></g><g fill="#cfaa5c" fill-opacity="1"><g transform="translate(128.491658, 235.55679)"><g><path d="M 0.078125 -1.3125 C 0.398438 -1.3125 0.671875 -1.40625 0.890625 -1.59375 C 1.117188 -1.78125 1.296875 -2.007812 1.421875 -2.28125 C 1.546875 -2.5625 1.707031 -2.960938 1.90625 -3.484375 L 5.609375 -13.640625 L 6.9375 -13.640625 L 10.984375 -3.28125 C 11.085938 -3.03125 11.191406 -2.71875 11.296875 -2.34375 C 11.410156 -1.96875 11.484375 -1.65625 11.515625 -1.40625 C 11.929688 -1.445312 12.296875 -1.46875 12.609375 -1.46875 L 12.609375 0 L 7.5 0 L 7.5 -1.25 C 8.113281 -1.25 8.421875 -1.503906 8.421875 -2.015625 C 8.421875 -2.265625 8.347656 -2.566406 8.203125 -2.921875 L 7.828125 -3.96875 L 3.703125 -3.890625 L 3.40625 -3 C 3.363281 -2.894531 3.273438 -2.664062 3.140625 -2.3125 C 3.003906 -1.957031 2.890625 -1.675781 2.796875 -1.46875 C 3.203125 -1.5 3.648438 -1.515625 4.140625 -1.515625 L 4.140625 0 L 0.078125 0 Z M 7.359375 -5.3125 L 6.484375 -7.6875 C 6.109375 -8.726562 5.863281 -9.597656 5.75 -10.296875 L 5.734375 -10.296875 C 5.535156 -9.390625 5.300781 -8.554688 5.03125 -7.796875 L 4.1875 -5.3125 Z M 7.359375 -5.3125 "/></g></g></g><g fill="#cfaa5c" fill-opacity="1"><g transform="translate(141.181061, 235.55679)"><g><path d="M 0.953125 -1.25 C 1.296875 -1.257812 1.554688 -1.300781 1.734375 -1.375 C 1.910156 -1.445312 2.046875 -1.597656 2.140625 -1.828125 C 2.242188 -2.054688 2.296875 -2.414062 2.296875 -2.90625 L 2.296875 -10.1875 C 2.296875 -10.894531 2.320312 -11.460938 2.375 -11.890625 L 0.953125 -11.84375 L 0.953125 -13.296875 L 6.40625 -13.296875 L 6.40625 -12.046875 C 6.0625 -12.035156 5.800781 -11.992188 5.625 -11.921875 C 5.445312 -11.847656 5.304688 -11.695312 5.203125 -11.46875 C 5.097656 -11.25 5.046875 -10.890625 5.046875 -10.390625 L 5.046875 -3.109375 C 5.046875 -2.398438 5.023438 -1.832031 4.984375 -1.40625 C 5.390625 -1.445312 5.863281 -1.46875 6.40625 -1.46875 L 6.40625 0 L 0.953125 0 Z M 0.953125 -1.25 "/></g></g></g><g fill="#ffffff" fill-opacity="1"><g transform="translate(148.542438, 235.55679)"><g><path d="M 0.78125 -1.234375 C 1.257812 -1.234375 1.566406 -1.363281 1.703125 -1.625 C 1.835938 -1.894531 1.90625 -2.328125 1.90625 -2.921875 L 1.90625 -6.125 C 1.90625 -6.6875 1.925781 -7.222656 1.96875 -7.734375 L 0.640625 -7.671875 L 0.640625 -9.125 C 1.441406 -9.125 2.085938 -9.179688 2.578125 -9.296875 C 3.078125 -9.410156 3.410156 -9.539062 3.578125 -9.6875 L 4.5 -9.6875 C 4.53125 -9.5 4.550781 -9.253906 4.5625 -8.953125 C 4.570312 -8.648438 4.578125 -8.351562 4.578125 -8.0625 L 4.609375 -8.0625 C 5.472656 -9.21875 6.390625 -9.796875 7.359375 -9.796875 C 7.835938 -9.796875 8.226562 -9.660156 8.53125 -9.390625 C 8.84375 -9.128906 9 -8.742188 9 -8.234375 C 9 -7.898438 8.890625 -7.59375 8.671875 -7.3125 C 8.460938 -7.03125 8.144531 -6.890625 7.71875 -6.890625 C 7.394531 -6.890625 7.109375 -6.972656 6.859375 -7.140625 C 6.617188 -7.304688 6.476562 -7.59375 6.4375 -8 C 6.082031 -8 5.71875 -7.789062 5.34375 -7.375 C 4.96875 -6.96875 4.71875 -6.5625 4.59375 -6.15625 L 4.59375 -3.0625 C 4.59375 -2.445312 4.566406 -1.890625 4.515625 -1.390625 C 4.921875 -1.421875 5.332031 -1.4375 5.75 -1.4375 L 5.75 0 L 0.78125 0 Z M 0.78125 -1.234375 "/></g></g></g><g fill="#ffffff" fill-opacity="1"><g transform="translate(157.660575, 235.55679)"><g><path d="M 5.28125 0.296875 C 4.351562 0.296875 3.535156 0.09375 2.828125 -0.3125 C 2.117188 -0.726562 1.566406 -1.316406 1.171875 -2.078125 C 0.785156 -2.835938 0.59375 -3.722656 0.59375 -4.734375 C 0.59375 -5.617188 0.789062 -6.445312 1.1875 -7.21875 C 1.582031 -8 2.140625 -8.625 2.859375 -9.09375 C 3.585938 -9.5625 4.414062 -9.796875 5.34375 -9.796875 C 6.570312 -9.796875 7.59375 -9.4375 8.40625 -8.71875 C 9.226562 -8 9.628906 -6.796875 9.609375 -5.109375 L 3.375 -5 C 3.375 -3.882812 3.585938 -3.003906 4.015625 -2.359375 C 4.441406 -1.710938 5.125 -1.390625 6.0625 -1.390625 C 6.5 -1.390625 6.972656 -1.503906 7.484375 -1.734375 C 7.992188 -1.960938 8.453125 -2.320312 8.859375 -2.8125 L 9.703125 -2.015625 C 8.628906 -0.472656 7.15625 0.296875 5.28125 0.296875 Z M 6.984375 -6.328125 C 6.953125 -7.753906 6.4375 -8.46875 5.4375 -8.46875 C 4.882812 -8.46875 4.445312 -8.273438 4.125 -7.890625 C 3.800781 -7.503906 3.59375 -6.984375 3.5 -6.328125 Z M 6.984375 -6.328125 "/></g></g></g><g fill="#ffffff" fill-opacity="1"><g transform="translate(167.880491, 235.55679)"><g/></g></g><g fill="#ffffff" fill-opacity="1"><g transform="translate(172.876467, 235.55679)"><g><path d="M 5.828125 0.296875 C 5.304688 0.296875 4.75 0.210938 4.15625 0.046875 C 3.570312 -0.109375 3.035156 -0.332031 2.546875 -0.625 L 2.53125 -0.625 L 2.578125 0.171875 L 1.125 0.171875 L 1.125 -4.28125 L 2.375 -4.28125 C 2.539062 -3.238281 2.9375 -2.441406 3.5625 -1.890625 C 4.195312 -1.335938 4.972656 -1.0625 5.890625 -1.0625 C 6.546875 -1.0625 7.085938 -1.234375 7.515625 -1.578125 C 7.953125 -1.929688 8.171875 -2.351562 8.171875 -2.84375 C 8.171875 -3.25 8.023438 -3.597656 7.734375 -3.890625 C 7.453125 -4.179688 7.132812 -4.410156 6.78125 -4.578125 C 6.4375 -4.742188 5.882812 -4.976562 5.125 -5.28125 C 3.738281 -5.84375 2.671875 -6.476562 1.921875 -7.1875 C 1.179688 -7.894531 0.8125 -8.820312 0.8125 -9.96875 C 0.8125 -10.550781 0.957031 -11.117188 1.25 -11.671875 C 1.539062 -12.222656 2.019531 -12.679688 2.6875 -13.046875 C 3.351562 -13.421875 4.210938 -13.609375 5.265625 -13.609375 C 5.804688 -13.609375 6.375 -13.523438 6.96875 -13.359375 C 7.5625 -13.203125 8.054688 -12.976562 8.453125 -12.6875 L 8.46875 -12.6875 L 8.390625 -13.46875 L 9.875 -13.46875 L 9.875 -9.046875 L 8.625 -9.046875 C 8.457031 -10.085938 8.09375 -10.878906 7.53125 -11.421875 C 6.96875 -11.960938 6.25 -12.234375 5.375 -12.234375 C 4.800781 -12.234375 4.304688 -12.078125 3.890625 -11.765625 C 3.484375 -11.460938 3.28125 -11.078125 3.28125 -10.609375 C 3.28125 -10.046875 3.515625 -9.570312 3.984375 -9.1875 C 4.453125 -8.8125 5.242188 -8.394531 6.359375 -7.9375 C 7.640625 -7.4375 8.679688 -6.851562 9.484375 -6.1875 C 10.296875 -5.519531 10.703125 -4.632812 10.703125 -3.53125 C 10.703125 -2.78125 10.5 -2.113281 10.09375 -1.53125 C 9.6875 -0.957031 9.113281 -0.507812 8.375 -0.1875 C 7.644531 0.132812 6.796875 0.296875 5.828125 0.296875 Z M 5.828125 0.296875 "/></g></g></g><g fill="#ffffff" fill-opacity="1"><g transform="translate(184.236146, 235.55679)"><g><path d="M 5.4375 0.296875 C 4.507812 0.296875 3.675781 0.101562 2.9375 -0.28125 C 2.207031 -0.675781 1.632812 -1.238281 1.21875 -1.96875 C 0.800781 -2.707031 0.59375 -3.566406 0.59375 -4.546875 C 0.59375 -5.566406 0.804688 -6.472656 1.234375 -7.265625 C 1.660156 -8.066406 2.238281 -8.6875 2.96875 -9.125 C 3.695312 -9.570312 4.5 -9.796875 5.375 -9.796875 C 6.289062 -9.796875 7.109375 -9.597656 7.828125 -9.203125 C 8.546875 -8.816406 9.113281 -8.253906 9.53125 -7.515625 C 9.957031 -6.773438 10.171875 -5.910156 10.171875 -4.921875 C 10.171875 -3.867188 9.96875 -2.945312 9.5625 -2.15625 C 9.164062 -1.375 8.609375 -0.769531 7.890625 -0.34375 C 7.179688 0.0820312 6.363281 0.296875 5.4375 0.296875 Z M 5.46875 -1.046875 C 6.164062 -1.046875 6.65625 -1.367188 6.9375 -2.015625 C 7.21875 -2.660156 7.359375 -3.472656 7.359375 -4.453125 C 7.359375 -5.535156 7.195312 -6.472656 6.875 -7.265625 C 6.5625 -8.066406 6.0625 -8.46875 5.375 -8.46875 C 4.675781 -8.46875 4.164062 -8.140625 3.84375 -7.484375 C 3.53125 -6.828125 3.375 -6.015625 3.375 -5.046875 C 3.375 -3.953125 3.546875 -3.007812 3.890625 -2.21875 C 4.234375 -1.4375 4.757812 -1.046875 5.46875 -1.046875 Z M 5.46875 -1.046875 "/></g></g></g><g fill="#ffffff" fill-opacity="1"><g transform="translate(194.98795, 235.55679)"><g><path d="M 0.46875 -1.234375 C 0.8125 -1.234375 1.0625 -1.300781 1.21875 -1.4375 C 1.382812 -1.570312 1.488281 -1.75 1.53125 -1.96875 C 1.570312 -2.195312 1.59375 -2.515625 1.59375 -2.921875 L 1.59375 -10.734375 C 1.59375 -11.335938 1.617188 -11.890625 1.671875 -12.390625 L 0.34375 -12.328125 L 0.34375 -13.78125 C 1.132812 -13.78125 1.773438 -13.832031 2.265625 -13.9375 C 2.765625 -14.050781 3.097656 -14.1875 3.265625 -14.34375 L 4.296875 -14.34375 L 4.296875 -3.0625 C 4.296875 -2.445312 4.269531 -1.890625 4.21875 -1.390625 C 4.632812 -1.421875 5.046875 -1.4375 5.453125 -1.4375 L 5.453125 0 L 0.46875 0 Z M 0.46875 -1.234375 "/></g></g></g><g fill="#ffffff" fill-opacity="1"><g transform="translate(200.914741, 235.55679)"><g><path d="M 4.71875 0.296875 C 3.582031 0.296875 2.769531 -0.03125 2.28125 -0.6875 C 1.800781 -1.34375 1.5625 -2.410156 1.5625 -3.890625 L 1.5625 -6.078125 C 1.5625 -6.609375 1.578125 -7.160156 1.609375 -7.734375 L 0.28125 -7.671875 L 0.28125 -9.125 C 1.082031 -9.125 1.726562 -9.179688 2.21875 -9.296875 C 2.71875 -9.410156 3.050781 -9.539062 3.21875 -9.6875 L 4.25 -9.6875 L 4.25 -3.875 C 4.25 -3.039062 4.359375 -2.425781 4.578125 -2.03125 C 4.796875 -1.632812 5.140625 -1.4375 5.609375 -1.4375 C 5.921875 -1.4375 6.242188 -1.523438 6.578125 -1.703125 C 6.921875 -1.878906 7.203125 -2.097656 7.421875 -2.359375 L 7.421875 -6.078125 C 7.421875 -6.671875 7.445312 -7.222656 7.5 -7.734375 L 6.171875 -7.671875 L 6.171875 -9.125 C 6.972656 -9.125 7.613281 -9.179688 8.09375 -9.296875 C 8.582031 -9.410156 8.910156 -9.539062 9.078125 -9.6875 L 10.125 -9.6875 L 10.125 -3.0625 C 10.125 -2.445312 10.097656 -1.890625 10.046875 -1.390625 C 10.453125 -1.421875 10.863281 -1.4375 11.28125 -1.4375 L 11.28125 0 L 7.671875 0 L 7.5625 -0.984375 L 7.546875 -0.984375 C 7.078125 -0.578125 6.625 -0.257812 6.1875 -0.03125 C 5.75 0.1875 5.257812 0.296875 4.71875 0.296875 Z M 4.71875 0.296875 "/></g></g></g><g fill="#ffffff" fill-opacity="1"><g transform="translate(212.654342, 235.55679)"><g><path d="M 4.546875 0.296875 C 2.566406 0.296875 1.578125 -0.914062 1.578125 -3.34375 L 1.609375 -7.921875 L 0.328125 -7.921875 L 0.328125 -9.5 C 0.734375 -9.5 1.113281 -9.625 1.46875 -9.875 C 1.832031 -10.132812 2.140625 -10.445312 2.390625 -10.8125 C 2.648438 -11.175781 2.828125 -11.53125 2.921875 -11.875 L 4.328125 -11.875 L 4.3125 -9.5 L 6.71875 -9.5 L 6.71875 -8.03125 L 4.3125 -7.984375 L 4.296875 -3.3125 C 4.296875 -2.082031 4.675781 -1.46875 5.4375 -1.46875 C 6.039062 -1.46875 6.613281 -1.847656 7.15625 -2.609375 L 8.078125 -1.75 C 7.484375 -0.875 6.882812 -0.3125 6.28125 -0.0625 C 5.6875 0.175781 5.109375 0.296875 4.546875 0.296875 Z M 4.546875 0.296875 "/></g></g></g><g fill="#ffffff" fill-opacity="1"><g transform="translate(220.499735, 235.55679)"><g><path d="M 3.453125 -11.375 C 3.023438 -11.375 2.671875 -11.523438 2.390625 -11.828125 C 2.109375 -12.128906 1.96875 -12.492188 1.96875 -12.921875 C 1.96875 -13.347656 2.113281 -13.71875 2.40625 -14.03125 C 2.695312 -14.34375 3.039062 -14.5 3.4375 -14.5 C 3.84375 -14.5 4.179688 -14.34375 4.453125 -14.03125 C 4.722656 -13.726562 4.859375 -13.359375 4.859375 -12.921875 C 4.859375 -12.472656 4.726562 -12.101562 4.46875 -11.8125 C 4.207031 -11.519531 3.867188 -11.375 3.453125 -11.375 Z M 0.78125 -1.234375 C 1.257812 -1.234375 1.566406 -1.363281 1.703125 -1.625 C 1.835938 -1.894531 1.90625 -2.328125 1.90625 -2.921875 L 1.90625 -6.078125 C 1.90625 -6.671875 1.925781 -7.222656 1.96875 -7.734375 L 0.640625 -7.671875 L 0.640625 -9.125 C 1.441406 -9.125 2.085938 -9.179688 2.578125 -9.296875 C 3.078125 -9.410156 3.410156 -9.539062 3.578125 -9.6875 L 4.59375 -9.6875 L 4.59375 -3.0625 C 4.59375 -2.445312 4.566406 -1.890625 4.515625 -1.390625 C 4.921875 -1.421875 5.332031 -1.4375 5.75 -1.4375 L 5.75 0 L 0.78125 0 Z M 0.78125 -1.234375 "/></g></g></g><g fill="#ffffff" fill-opacity="1"><g transform="translate(226.711462, 235.55679)"><g><path d="M 5.4375 0.296875 C 4.507812 0.296875 3.675781 0.101562 2.9375 -0.28125 C 2.207031 -0.675781 1.632812 -1.238281 1.21875 -1.96875 C 0.800781 -2.707031 0.59375 -3.566406 0.59375 -4.546875 C 0.59375 -5.566406 0.804688 -6.472656 1.234375 -7.265625 C 1.660156 -8.066406 2.238281 -8.6875 2.96875 -9.125 C 3.695312 -9.570312 4.5 -9.796875 5.375 -9.796875 C 6.289062 -9.796875 7.109375 -9.597656 7.828125 -9.203125 C 8.546875 -8.816406 9.113281 -8.253906 9.53125 -7.515625 C 9.957031 -6.773438 10.171875 -5.910156 10.171875 -4.921875 C 10.171875 -3.867188 9.96875 -2.945312 9.5625 -2.15625 C 9.164062 -1.375 8.609375 -0.769531 7.890625 -0.34375 C 7.179688 0.0820312 6.363281 0.296875 5.4375 0.296875 Z M 5.46875 -1.046875 C 6.164062 -1.046875 6.65625 -1.367188 6.9375 -2.015625 C 7.21875 -2.660156 7.359375 -3.472656 7.359375 -4.453125 C 7.359375 -5.535156 7.195312 -6.472656 6.875 -7.265625 C 6.5625 -8.066406 6.0625 -8.46875 5.375 -8.46875 C 4.675781 -8.46875 4.164062 -8.140625 3.84375 -7.484375 C 3.53125 -6.828125 3.375 -6.015625 3.375 -5.046875 C 3.375 -3.953125 3.546875 -3.007812 3.890625 -2.21875 C 4.234375 -1.4375 4.757812 -1.046875 5.46875 -1.046875 Z M 5.46875 -1.046875 "/></g></g></g><g fill="#ffffff" fill-opacity="1"><g transform="translate(237.463266, 235.55679)"><g><path d="M 0.78125 -1.234375 C 1.257812 -1.234375 1.566406 -1.363281 1.703125 -1.625 C 1.835938 -1.894531 1.90625 -2.328125 1.90625 -2.921875 L 1.90625 -6.125 C 1.90625 -6.6875 1.925781 -7.222656 1.96875 -7.734375 L 0.640625 -7.671875 L 0.640625 -9.125 C 1.441406 -9.125 2.085938 -9.179688 2.578125 -9.296875 C 3.078125 -9.410156 3.410156 -9.539062 3.578125 -9.6875 L 4.5 -9.6875 C 4.5 -9.664062 4.523438 -9.347656 4.578125 -8.734375 L 4.609375 -8.734375 C 4.984375 -9.023438 5.4375 -9.273438 5.96875 -9.484375 C 6.507812 -9.691406 6.972656 -9.796875 7.359375 -9.796875 C 8.503906 -9.796875 9.320312 -9.46875 9.8125 -8.8125 C 10.3125 -8.15625 10.5625 -7.085938 10.5625 -5.609375 L 10.5625 -3.0625 C 10.5625 -2.445312 10.535156 -1.890625 10.484375 -1.390625 C 10.898438 -1.421875 11.3125 -1.4375 11.71875 -1.4375 L 11.71875 0 L 6.75 0 L 6.75 -1.234375 C 7.226562 -1.234375 7.535156 -1.363281 7.671875 -1.625 C 7.816406 -1.894531 7.890625 -2.328125 7.890625 -2.921875 L 7.859375 -5.625 C 7.859375 -6.457031 7.738281 -7.070312 7.5 -7.46875 C 7.269531 -7.863281 6.878906 -8.0625 6.328125 -8.0625 C 6.023438 -8.0625 5.710938 -7.992188 5.390625 -7.859375 C 5.078125 -7.722656 4.8125 -7.554688 4.59375 -7.359375 L 4.59375 -3.0625 C 4.59375 -2.445312 4.566406 -1.890625 4.515625 -1.390625 C 4.921875 -1.421875 5.332031 -1.4375 5.75 -1.4375 L 5.75 0 L 0.78125 0 Z M 0.78125 -1.234375 "/></g></g></g><g fill="#ffffff" fill-opacity="1"><g transform="translate(249.544793, 235.55679)"><g><path d="M 5.15625 0.296875 C 4.601562 0.296875 4.066406 0.226562 3.546875 0.09375 C 3.035156 -0.0390625 2.632812 -0.21875 2.34375 -0.4375 L 2.3125 -0.4375 L 2.375 0.140625 L 0.9375 0.140625 L 0.859375 -3.140625 L 2.09375 -3.140625 C 2.15625 -2.554688 2.460938 -2.0625 3.015625 -1.65625 C 3.566406 -1.257812 4.238281 -1.0625 5.03125 -1.0625 C 5.382812 -1.0625 5.691406 -1.144531 5.953125 -1.3125 C 6.210938 -1.476562 6.34375 -1.710938 6.34375 -2.015625 C 6.34375 -2.242188 6.257812 -2.429688 6.09375 -2.578125 C 5.9375 -2.734375 5.742188 -2.859375 5.515625 -2.953125 C 5.285156 -3.054688 4.828125 -3.242188 4.140625 -3.515625 C 3.328125 -3.828125 2.71875 -4.082031 2.3125 -4.28125 C 1.90625 -4.488281 1.539062 -4.789062 1.21875 -5.1875 C 0.894531 -5.59375 0.734375 -6.113281 0.734375 -6.75 C 0.734375 -7.269531 0.863281 -7.757812 1.125 -8.21875 C 1.382812 -8.675781 1.785156 -9.050781 2.328125 -9.34375 C 2.867188 -9.644531 3.53125 -9.796875 4.3125 -9.796875 C 4.675781 -9.796875 5.070312 -9.738281 5.5 -9.625 C 5.9375 -9.519531 6.300781 -9.363281 6.59375 -9.15625 L 6.609375 -9.15625 L 6.59375 -9.703125 L 8.03125 -9.703125 L 8.03125 -6.34375 L 6.796875 -6.34375 C 6.679688 -7 6.390625 -7.515625 5.921875 -7.890625 C 5.453125 -8.273438 4.878906 -8.46875 4.203125 -8.46875 C 3.847656 -8.46875 3.546875 -8.382812 3.296875 -8.21875 C 3.054688 -8.0625 2.9375 -7.8125 2.9375 -7.46875 C 2.9375 -7.113281 3.078125 -6.847656 3.359375 -6.671875 C 3.640625 -6.503906 4.109375 -6.3125 4.765625 -6.09375 C 4.847656 -6.082031 5.015625 -6.035156 5.265625 -5.953125 C 6.335938 -5.566406 7.160156 -5.117188 7.734375 -4.609375 C 8.316406 -4.109375 8.609375 -3.445312 8.609375 -2.625 C 8.609375 -1.988281 8.445312 -1.453125 8.125 -1.015625 C 7.800781 -0.578125 7.375 -0.25 6.84375 -0.03125 C 6.320312 0.1875 5.757812 0.296875 5.15625 0.296875 Z M 5.15625 0.296875 "/></g></g></g></svg>